<?xml version="1.0" encoding="UTF-8" standalone="no"?>
<!-- Created with Inkscape (http://www.inkscape.org/) -->

<svg
   xmlns:dc="http://purl.org/dc/elements/1.1/"
   xmlns:cc="http://creativecommons.org/ns#"
   xmlns:rdf="http://www.w3.org/1999/02/22-rdf-syntax-ns#"
   xmlns:svg="http://www.w3.org/2000/svg"
   xmlns="http://www.w3.org/2000/svg"
   xmlns:sodipodi="http://sodipodi.sourceforge.net/DTD/sodipodi-0.dtd"
   xmlns:inkscape="http://www.inkscape.org/namespaces/inkscape"
   width="103.516"
   height="90.082603"
   id="svg10880"
   version="1.1"
   inkscape:version="0.48.5 r10040"
   sodipodi:docname="cordova.svg">
  <defs
     id="defs10882" />
  <sodipodi:namedview
     id="base"
     pagecolor="#ffffff"
     bordercolor="#666666"
     borderopacity="1.0"
     inkscape:pageopacity="0.0"
     inkscape:pageshadow="2"
     inkscape:zoom="0.35"
     inkscape:cx="51.758"
     inkscape:cy="45.041297"
     inkscape:document-units="px"
     inkscape:current-layer="layer1"
     showgrid="false"
     inkscape:window-width="1855"
     inkscape:window-height="1056"
     inkscape:window-x="65"
     inkscape:window-y="24"
     inkscape:window-maximized="1"
     fit-margin-top="0"
     fit-margin-left="0"
     fit-margin-right="0"
     fit-margin-bottom="0" />
  <metadata
     id="metadata10885">
    <rdf:RDF>
      <cc:Work
         rdf:about="">
        <dc:format>image/svg+xml</dc:format>
        <dc:type
           rdf:resource="http://purl.org/dc/dcmitype/StillImage" />
        <dc:title></dc:title>
      </cc:Work>
    </rdf:RDF>
  </metadata>
  <g
     inkscape:label="Layer 1"
     inkscape:groupmode="layer"
     id="layer1"
     transform="translate(-323.242,-487.32088)">
    <path
       transform="matrix(0.07827572,0,0,0.09847591,130.5883,291.05298)"
       d="m 3000,2512.3623 c 0,33.1371 -8.9543,60 -20,60 -11.0457,0 -20,-26.8629 -20,-60 0,-33.1371 8.9543,-60 20,-60 11.0457,0 20,26.8629 20,60 z"
       sodipodi:ry="60"
       sodipodi:rx="20"
       sodipodi:cy="2512.3623"
       sodipodi:cx="2980"
       id="path4406"
       style="fill:#363b40;fill-opacity:1;stroke:none"
       sodipodi:type="arc"
       inkscape:export-filename="/home/daniel/cordova.png"
       inkscape:export-xdpi="41.961525"
       inkscape:export-ydpi="41.961525" />
    <path
       sodipodi:type="arc"
       style="fill:#363b40;fill-opacity:1;stroke:none"
       id="path4411"
       sodipodi:cx="2980"
       sodipodi:cy="2512.3623"
       sodipodi:rx="20"
       sodipodi:ry="60"
       d="m 3000,2512.3623 c 0,33.1371 -8.9543,60 -20,60 -11.0457,0 -20,-26.8629 -20,-60 0,-33.1371 8.9543,-60 20,-60 11.0457,0 20,26.8629 20,60 z"
       transform="matrix(0.07827572,0,0,0.09847591,152.4344,291.05298)"
       inkscape:export-filename="/home/daniel/cordova.png"
       inkscape:export-xdpi="41.961525"
       inkscape:export-ydpi="41.961525" />
    <path
       inkscape:connector-curvature="0"
       style="fill:#363b40;fill-opacity:1;stroke:none"
       d="m 342.6017,487.32088 -19.3597,39.049 12.1822,51.0336 5.3668,0 11.5894,0 -2.1401,-13.631 7.474,0 2.0743,13.631 28.052,0 2.0415,-13.631 7.5069,0 -2.1732,13.631 10.0422,0 8.0667,0 13.4333,-51.0336 -19.3599,-39.049 -64.7964,0 z m 10.7336,13.4334 12.4457,0 -0.8231,6.8153 1.9754,0 14.1578,0 1.9426,0 -0.8233,-6.8153 14.1249,0 8.5934,26.8666 -6.5191,30.9824 -48.7949,0 -4.8728,-30.9824 8.5934,-26.8666 z"
       id="path4415"
       inkscape:export-filename="/home/daniel/cordova.png"
       inkscape:export-xdpi="41.961525"
       inkscape:export-ydpi="41.961525" />
    <path
       sodipodi:type="arc"
       style="fill:#363b40;fill-opacity:1;stroke:none"
       id="path4418"
       sodipodi:cx="2980"
       sodipodi:cy="2512.3623"
       sodipodi:rx="20"
       sodipodi:ry="60"
       d="m 3000,2512.3623 c 0,33.1371 -8.9543,60 -20,60 -11.0457,0 -20,-26.8629 -20,-60 0,-33.1371 8.9543,-60 20,-60 11.0457,0 20,26.8629 20,60 z"
       transform="matrix(0.07827572,0,0,0.09847591,130.5883,291.05298)"
       inkscape:export-filename="/home/daniel/cordova.png"
       inkscape:export-xdpi="41.961525"
       inkscape:export-ydpi="41.961525" />
    <path
       transform="matrix(0.07827572,0,0,0.09847591,152.4344,291.05298)"
       d="m 3000,2512.3623 c 0,33.1371 -8.9543,60 -20,60 -11.0457,0 -20,-26.8629 -20,-60 0,-33.1371 8.9543,-60 20,-60 11.0457,0 20,26.8629 20,60 z"
       sodipodi:ry="60"
       sodipodi:rx="20"
       sodipodi:cy="2512.3623"
       sodipodi:cx="2980"
       id="path4420"
       style="fill:#363b40;fill-opacity:1;stroke:none"
       sodipodi:type="arc"
       inkscape:export-filename="/home/daniel/cordova.png"
       inkscape:export-xdpi="41.961525"
       inkscape:export-ydpi="41.961525" />
  </g>
</svg>
